<?xml version="1.0" ?><svg style="enable-background:new 0 0 48 48;" version="1.1" viewBox="0 0 48 48" xml:space="preserve" xmlns="http://www.w3.org/2000/svg" xmlns:xlink="http://www.w3.org/1999/xlink"><g id="Padding__x26__Artboard"/><g id="Icons"><g><path d="M18.08655,22.85083h0.78168V19.6601h-1.26978l-0.91693,2.16449l-0.99805-2.16449h-1.24475v3.02094    l-1.29706-3.02094h-1.13312l-1.36578,3.19073h0.82837l0.29602-0.71173h1.58801l0.29297,0.71173h1.55121v-2.50122l1.1087,2.50122    h0.66962l1.1059-2.49902L18.08655,22.85083z M12.03876,21.474l0.51898-1.27197l0.52203,1.27197H12.03876z" style="fill:#303030;"/><path d="M24.13116,25.15192h-2.43683L20.72424,26.198l-0.93829-1.04608h-3.06708v3.19128h3.021    l0.97577-1.0567l0.93829,1.0567h1.48309v-1.07019h0.95172c0.66602,0,1.32812-0.1828,1.32812-1.07013    C25.41687,25.3194,24.73645,25.15192,24.13116,25.15192z M19.35327,27.67822h-1.87512v-0.63501h1.67432v-0.65112h-1.67432v-0.5802    h1.91211l0.83417,0.92999L19.35327,27.67822z M22.37714,28.05292l-1.1709-1.29993l1.1709-1.25861V28.05292z M24.12231,26.62457    h-0.9856v-0.81256h0.99451c0.27533,0,0.46631,0.11206,0.46631,0.39117C24.59753,26.47931,24.41547,26.62457,24.12231,26.62457z" style="fill:#303030;"/><polygon points="21.98444,22.1908 20.19946,22.1908 20.19946,21.55371 21.94153,21.55371 21.94153,20.8996     20.19946,20.8996 20.19946,20.32452 21.98444,20.32452 21.98444,19.6601 19.43665,19.6601 19.43665,22.85083 21.98444,22.85083       " style="fill:#303030;"/><rect height="3.19073" style="fill:#303030;" width="0.7782" x="26.01892" y="19.6601"/><path d="M28.84485,26.01129c0-0.36469-0.151-0.56299-0.39172-0.70929    c-0.25018-0.13281-0.53217-0.15009-0.91809-0.15009h-1.76019v3.19128h0.76611v-1.16553h0.81506    c0.2782,0,0.44751,0.02704,0.5592,0.14154c0.14246,0.14819,0.12323,0.43311,0.12323,0.62457v0.39941h0.76599v-0.63232    c-0.00293-0.28198-0.01831-0.42725-0.12598-0.58319c-0.06555-0.09241-0.2041-0.20496-0.37445-0.26758    C28.50513,26.78027,28.84485,26.52039,28.84485,26.01129z M27.84387,26.46289c-0.10205,0.06061-0.22815,0.0658-0.37665,0.0658    h-0.92639v-0.71667h0.93903c0.13586,0,0.27167,0.00281,0.36401,0.05762c0.09888,0.0517,0.1579,0.15045,0.1579,0.28687    C28.00177,26.29327,27.94275,26.4032,27.84387,26.46289z" style="fill:#303030;"/><path d="M23.27563,21.69019h0.81873c0.27448,0,0.4444,0.02441,0.55579,0.1366    c0.13879,0.1535,0.12042,0.42963,0.12042,0.62164l0.00287,0.4024h0.76923V22.224c0-0.28497-0.01849-0.42682-0.12622-0.58539    c-0.06781-0.09302-0.21039-0.2052-0.37732-0.2688c0.19794-0.07892,0.53741-0.34174,0.53741-0.8504    c0-0.3559-0.14471-0.5639-0.38586-0.70648c-0.24652-0.14252-0.53375-0.15283-0.92352-0.15283h-1.75421v3.19073h0.7627V21.69019z     M23.27557,20.32452h0.93909c0.13287,0,0.27161,0.00598,0.36157,0.0575c0.099,0.04657,0.16022,0.14551,0.16022,0.2821    c0,0.13947-0.05829,0.25165-0.15723,0.30341c-0.10468,0.0636-0.2287,0.06567-0.3772,0.06567h-0.92645V20.32452z" style="fill:#303030;"/><path d="M28.68396,22.85083h0.89246l0.28802-0.71173h1.58423l0.29675,0.71173h1.55322v-2.39484    l1.44568,2.39484h1.08063v-3.19061h-0.78113v2.22217l-1.34058-2.22217h-1.16119v3.01788l-1.2912-3.01788h-1.1427l-1.07501,2.50916    h-0.34247c-0.20074,0-0.41412-0.03827-0.53143-0.16455c-0.14191-0.16095-0.20978-0.40753-0.20978-0.74933    c0-0.33441,0.08917-0.58838,0.21918-0.72272c0.15143-0.14771,0.30859-0.18909,0.58691-0.18909h0.7229V19.6601h-0.7384    c-0.52563,0-0.91168,0.11743-1.1582,0.37201c-0.32782,0.34192-0.41119,0.77448-0.41119,1.24762    c0,0.58026,0.13947,0.9472,0.40747,1.2182C27.84393,22.7688,28.31335,22.85083,28.68396,22.85083z M30.66083,20.20203    l0.52789,1.27197h-1.05255L30.66083,20.20203z" style="fill:#303030;"/><polygon points="29.26837,28.3432 31.81287,28.3432 31.81287,27.68103 30.02765,27.67822     30.02765,27.04303 31.76953,27.04303 31.76953,26.3924 30.02765,26.3924 30.02765,25.81207 31.81287,25.81207 31.81287,25.15192     29.26837,25.15192   " style="fill:#303030;"/><path d="M33.85504,26.40302l-0.41089-0.01062c-0.13,0-0.21661-0.00861-0.29651-0.03662    c-0.09619-0.03546-0.16742-0.11737-0.16742-0.23767c0-0.10101,0.03082-0.17798,0.1145-0.229    c0.07703-0.05292,0.16754-0.05768,0.30609-0.05768h1.39923v-0.6795h-1.52924c-0.79968,0-1.09027,0.487-1.09027,0.94989    c0,1.0105,0.89301,0.96338,1.60614,0.9884c0.13287,0,0.21368,0.02209,0.27148,0.07019    c0.05286,0.04431,0.09326,0.11841,0.09326,0.21167c0,0.08661-0.03748,0.15881-0.09052,0.20795    c-0.06439,0.05969-0.16638,0.07886-0.31079,0.07886h-1.4801v0.68433h1.4859c0.76892,0,1.19812-0.3205,1.19812-1.00659    c0-0.32922-0.07977-0.52258-0.22803-0.67664C34.55273,26.4848,34.26886,26.41357,33.85504,26.40302z" style="fill:#303030;"/><path d="M36.37793,25.83099c-0.13879,0-0.23096,0.00519-0.30872,0.05762    c-0.08038,0.0517-0.11145,0.12842-0.11145,0.22961c0,0.12048,0.06799,0.20227,0.16687,0.23779    c0.08038,0.02795,0.16693,0.03607,0.29388,0.03607l0.41333,0.01111c0.41711,0.01031,0.6955,0.08191,0.8653,0.2569    c0.03088,0.02429,0.04938,0.0517,0.07068,0.07898l0.00024-0.0025v-0.90558h-0.00024H36.37793z" style="fill:none;"/><path d="M37.76807,26.73889v-0.00232l-0.00024,0.0025c-0.0213-0.02728-0.03979-0.05469-0.07068-0.07898    c-0.1698-0.17499-0.44818-0.24658-0.8653-0.2569l-0.41333-0.01111c-0.12695,0-0.2135-0.00812-0.29388-0.03607    c-0.09888-0.03552-0.16687-0.11731-0.16687-0.23779c0-0.1012,0.03107-0.17792,0.11145-0.22961    c0.07776-0.05243,0.16992-0.05762,0.30872-0.05762h1.38989h0.00024v-0.67908h-1.51965c-0.79968,0-1.09418,0.487-1.09418,0.94989    c0,1.0105,0.89313,0.96338,1.61011,0.9884c0.13281,0,0.21271,0.02209,0.26849,0.07019    c0.05579,0.04431,0.09338,0.11841,0.09338,0.21167c0,0.08661-0.0376,0.15881-0.09045,0.20795    c-0.06165,0.05969-0.16364,0.07886-0.30902,0.07886h-1.46661v0.68433h1.47241c0.48889,0,0.84979-0.13757,1.03552-0.40802    C38.14825,27.24323,37.76807,26.73889,37.76807,26.73889z" style="fill:#303030;"/><path d="M36.73438,14.05713H11.26562c-1.32715,0-2.40674,1.07959-2.40674,2.40674v15.07227    c0,1.32715,1.07959,2.40674,2.40674,2.40674h25.46875c1.32715,0,2.40674-1.07959,2.40674-2.40674V16.46387    C39.14111,15.13672,38.06152,14.05713,36.73438,14.05713z M24.02637,22.31421h-0.12341l0.00311,1.16327h-6.37183v-0.54987    l-0.22882,0.55206h-1.33099l-0.22888-0.54407v0.54187h-2.5639l-0.29309-0.70868h-0.65771l-0.29376,0.70868h-1.3031h-0.00012    l-1.0199,0.0022l1.94348-4.45227h1.98883l0.25629,0.52557V19.0274h2.33197l0.51013,1.14941l0.49689-1.14941h7.40381    c0.33649,0,0.63928,0.06281,0.86139,0.25977V19.0274h2.02661v0.25977c0.34912-0.19116,0.78107-0.25977,1.27271-0.25977h2.93671    l0.27246,0.52557V19.0274h2.17413l0.29669,0.52557V19.0274h2.11877v4.45007h-2.14087l-0.4046-0.67328v0.67328h-2.67169    l-0.29022-0.70868h-0.65771l-0.29675,0.70868h-1.38629c-0.54413,0-0.95752-0.12836-1.22333-0.27087v0.27087h-3.29553v-1.00977    C24.13782,22.3252,24.11255,22.31708,24.02637,22.31421z M38.39111,27.84998c-0.00586,0.02075-0.01477,0.05432-0.01477,0.05432    c-0.05103,0.31378-0.32721,0.62952-0.49091,0.77673c-0.0047,0.00378-0.00958,0.00867-0.01532,0.01245    c-0.00476,0.00482-0.01056,0.00873-0.01538,0.01251c-0.03851,0.02893-0.08667,0.05872-0.08667,0.05872    c-0.30603,0.14728-0.70734,0.20502-1.11835,0.20502h-1.97668v-0.28491c-0.229,0.18378-0.64191,0.28491-1.03735,0.28491h-6.23053    v-1.02881c0-0.1261-0.01251-0.13184-0.13861-0.13184h-0.09912v1.16064h-2.05078v-1.20111    c-0.34259,0.14819-0.73242,0.16071-1.0625,0.15601h-0.24451v1.04797l-2.48578-0.00287l-0.61108-0.69202l-0.6496,0.69202h-4.03333    v-4.453h4.11127l0.5899,0.6814l0.62946-0.6814h2.75238c0.31757,0,0.84009,0.03369,1.07501,0.2608v-0.2608h2.45886    c0.2309,0,0.73145,0.04718,1.02783,0.2608v-0.2608h3.72827v0.2608c0.18573-0.17804,0.57739-0.2608,0.91132-0.2608h2.0874v0.2608    c0.21948-0.15875,0.52942-0.2608,0.95477-0.2608h2.02002v1.75537h-0.25891c0.16461,0.13,0.25891,0.34753,0.25891,0.34753    c0.00873,0.0354,0.00763,0.06342,0.01477,0.09784C38.51349,27.30676,38.42462,27.73169,38.39111,27.84998z" style="fill:#303030;"/></g></g></svg>